<?xml version="1.0" standalone="no"?>
<!DOCTYPE svg PUBLIC "-//W3C//DTD SVG 20010904//EN"
 "http://www.w3.org/TR/2001/REC-SVG-20010904/DTD/svg10.dtd">
<svg version="1.0" xmlns="http://www.w3.org/2000/svg"
 width="450.000000pt" height="450.000000pt" viewBox="0 0 450.000000 450.000000"
 preserveAspectRatio="xMidYMid meet">
<metadata>
Created by potrace 1.14, written by Peter Selinger 2001-2017
</metadata>
<g transform="translate(0.000000,450.000000) scale(0.100000,-0.100000)"
fill="#000000" stroke="none">
<path d="M528 4461 c-16 -15 -28 -33 -28 -40 0 -12 -47 -35 -67 -32 -7 1 -20
-10 -29 -25 -16 -23 -53 -46 -79 -48 -5 -1 -10 -8 -10 -17 0 -9 -5 -23 -12
-30 -6 -8 -13 -23 -15 -34 -2 -11 -17 -29 -35 -40 -25 -16 -32 -28 -36 -65 -9
-79 -15 -104 -26 -108 -6 -2 -11 -10 -11 -17 0 -7 -5 -15 -11 -17 -17 -6 -13
-87 5 -107 9 -10 13 -21 9 -24 -3 -4 -1 -7 5 -7 7 0 12 -6 12 -13 0 -37 54
-112 72 -101 5 3 8 -1 8 -9 0 -20 39 -67 53 -64 7 1 13 -11 15 -26 2 -19 8
-27 17 -23 14 5 39 -17 29 -27 -8 -7 26 -58 36 -52 8 5 45 -20 45 -32 2 -25
19 -53 36 -58 25 -8 48 -54 53 -107 4 -41 34 -77 63 -78 15 0 33 -32 33 -58 0
-26 23 -69 49 -93 12 -11 21 -28 21 -39 0 -28 21 -70 35 -70 23 0 45 -37 47
-82 2 -25 6 -44 10 -42 4 3 14 -9 23 -26 8 -16 21 -30 29 -30 23 0 39 -49 40
-123 1 -66 19 -127 33 -113 3 3 13 -7 21 -22 15 -29 23 -160 10 -168 -5 -3 -6
-9 -3 -13 2 -5 -4 -16 -15 -26 -18 -16 -20 -31 -20 -150 0 -91 -4 -135 -12
-143 -10 -10 -13 -121 -14 -484 0 -343 -3 -473 -12 -476 -6 -2 -9 -9 -6 -17 3
-7 -6 -24 -20 -38 -23 -23 -25 -31 -24 -128 1 -57 -2 -113 -6 -124 -7 -22 -90
-65 -124 -65 -12 0 -25 -8 -31 -17 -5 -10 -23 -18 -43 -20 -18 -1 -44 -4 -58
-6 -29 -4 -80 -50 -80 -71 0 -15 -69 -60 -78 -52 -8 8 -43 -14 -37 -24 3 -4
-14 -18 -36 -29 -47 -25 -61 -37 -78 -69 -7 -13 -23 -27 -37 -32 -15 -6 -24
-17 -24 -30 0 -26 -27 -80 -50 -100 -22 -19 -43 -136 -38 -215 l3 -60 285 0
c317 0 560 6 575 14 6 3 22 6 36 7 14 0 39 5 55 9 16 5 33 7 37 6 5 -1 11 7
14 18 9 34 43 47 116 46 37 0 67 2 67 5 0 3 21 5 48 5 49 0 93 16 126 47 10 9
23 15 27 12 4 -2 11 0 14 6 4 7 12 7 18 2 10 -7 72 -9 72 -2 0 1 13 3 29 5 16
1 33 9 38 19 6 11 23 16 59 16 35 0 49 4 47 13 -2 7 0 12 4 12 3 0 18 11 32
24 20 19 41 25 112 32 48 5 90 7 92 4 3 -3 14 2 24 12 10 9 18 13 18 8 0 -4
11 0 25 9 13 9 38 16 55 16 23 0 30 4 30 20 0 21 1 22 70 25 25 1 52 4 60 8 8
3 32 8 53 10 24 3 47 15 62 31 13 14 31 27 40 27 73 6 96 8 135 12 52 4 100
22 100 36 0 16 40 33 84 36 76 6 131 17 141 30 6 7 20 15 31 19 12 4 24 15 27
26 4 16 16 19 68 22 50 2 64 6 62 18 -2 17 61 69 92 75 11 2 37 7 57 10 29 4
42 13 53 35 9 17 23 31 33 32 9 0 28 2 42 3 14 2 31 3 38 4 6 0 12 10 12 21 0
13 7 20 18 20 10 0 23 5 29 11 6 6 32 12 59 14 27 2 50 9 52 14 2 5 9 8 15 5
13 -5 52 26 59 46 2 6 10 12 18 14 32 6 49 19 59 45 10 22 18 27 48 28 19 0
38 5 42 10 3 5 16 8 28 7 15 -1 23 6 27 22 4 13 11 24 16 24 6 0 10 7 10 15 0
9 8 18 18 22 9 3 35 24 57 47 22 22 49 46 60 52 11 7 20 21 19 33 0 11 3 21 8
21 4 0 8 7 8 15 0 9 9 15 23 15 12 0 31 12 42 25 11 14 29 36 40 48 27 31 46
65 51 91 13 69 20 84 50 109 28 23 34 35 34 67 0 52 8 70 32 70 10 0 17 4 13
9 -3 5 7 22 22 37 l28 28 0 150 c0 123 -3 158 -17 187 -18 38 -37 58 -51 56
-5 -1 -15 16 -23 38 -7 22 -25 48 -39 58 -14 11 -33 33 -41 51 -9 17 -28 42
-43 56 -16 14 -35 39 -45 57 -15 30 -56 63 -56 46 0 -4 -11 5 -25 20 -14 15
-36 27 -48 27 -16 0 -31 15 -55 55 -18 30 -39 55 -46 55 -8 0 -20 7 -27 16 -7
9 -24 20 -36 25 -13 5 -22 14 -21 21 2 7 -18 17 -47 25 -27 7 -57 21 -65 31
-8 9 -34 28 -58 40 -24 12 -53 31 -64 42 -12 11 -25 17 -30 14 -4 -3 -8 0 -8
5 0 6 -10 11 -22 11 -43 0 -68 12 -68 31 0 13 -7 19 -21 19 -11 0 -28 9 -37
20 -10 12 -33 23 -52 26 -47 8 -90 34 -90 56 0 20 -46 47 -89 52 -16 2 -46 17
-66 33 -22 19 -46 29 -63 28 -39 -2 -95 20 -107 41 -23 43 -50 64 -82 64 -42
0 -79 17 -98 47 -9 12 -25 23 -38 23 -45 0 -121 35 -112 50 3 5 -1 20 -10 33
-12 19 -23 24 -50 21 -19 -1 -35 2 -35 7 0 4 -6 6 -13 3 -7 -2 -28 11 -46 30
-19 20 -38 33 -42 30 -10 -6 -99 35 -99 45 0 11 -70 42 -81 36 -5 -4 -15 -3
-21 1 -13 8 -35 13 -72 16 -11 1 -24 14 -30 29 -8 22 -15 27 -40 25 -17 -1
-42 3 -56 11 -14 7 -31 13 -38 13 -7 0 -11 4 -8 9 7 10 -29 42 -69 61 -39 19
-75 50 -75 67 0 7 -10 13 -22 13 -30 0 -50 13 -46 30 2 7 -5 14 -15 15 -10 2
-24 9 -32 15 -29 24 -82 46 -110 45 -30 0 -78 31 -70 45 6 10 -51 33 -89 36
-17 1 -35 3 -40 3 -5 1 -7 4 -3 7 3 4 0 13 -8 20 -7 8 -15 18 -17 24 -3 10
-36 21 -67 22 -8 1 -16 8 -18 17 -4 16 -75 63 -102 67 -7 2 -18 7 -24 13 -6 6
-19 11 -28 11 -18 0 -36 17 -41 40 -2 8 -12 17 -23 20 -10 3 -22 15 -25 25 -3
13 -13 20 -26 19 -12 -1 -32 5 -45 12 -13 7 -20 13 -16 14 12 0 -14 24 -42 39
-12 7 -35 14 -49 15 -43 5 -59 16 -58 39 2 40 -53 57 -179 57 -107 -1 -111 -1
-137 -29z m1308 -1581 c8 0 14 -5 14 -12 0 -22 33 -48 61 -48 15 0 31 -5 34
-11 4 -6 13 -8 20 -5 13 5 55 -43 68 -77 4 -9 10 -16 14 -15 13 4 68 -53 65
-66 -1 -8 13 -13 40 -14 43 -2 102 -24 113 -42 4 -6 10 -8 15 -5 5 3 21 -6 36
-20 15 -14 33 -25 40 -25 17 0 74 -58 74 -76 0 -9 11 -14 29 -14 19 0 45 -13
75 -38 37 -31 56 -39 92 -40 63 -3 63 -3 101 -42 18 -19 33 -31 33 -26 0 4 18
-7 40 -24 22 -17 40 -37 40 -44 0 -17 48 -41 75 -38 16 2 35 -9 60 -35 31 -31
43 -37 73 -36 50 3 90 -14 130 -54 18 -18 39 -33 47 -33 8 0 15 -7 15 -15 0
-22 51 -64 90 -75 43 -12 51 -18 72 -52 10 -14 27 -29 38 -33 11 -3 20 -13 20
-21 0 -8 6 -14 14 -14 8 0 26 -14 40 -30 14 -17 28 -30 31 -30 32 2 37 -1 32
-20 -3 -11 -2 -20 3 -20 4 0 27 -18 51 -41 36 -34 43 -46 44 -82 1 -51 -19
-97 -43 -97 -28 0 -114 -36 -110 -46 2 -5 -12 -10 -30 -12 -25 -3 -32 -7 -28
-18 6 -17 -4 -22 -52 -28 -19 -2 -45 -15 -62 -32 -20 -21 -39 -29 -67 -30 -21
-1 -39 -3 -40 -4 -2 -1 -11 -3 -20 -4 -32 -3 -96 -39 -100 -57 -7 -24 -15 -26
-140 -40 -62 -7 -113 -18 -121 -26 -34 -34 -108 -51 -304 -72 -11 -1 -58 -55
-58 -66 0 -6 -24 -10 -57 -10 -32 0 -62 -2 -68 -5 -5 -4 -17 -6 -25 -5 -8 1
-32 -5 -52 -12 -21 -6 -38 -10 -38 -8 0 2 -15 -6 -34 -19 -27 -18 -50 -24
-103 -25 -37 -1 -84 -4 -103 -7 -19 -3 -47 -6 -62 -7 -15 -1 -33 -8 -40 -15
-6 -6 -31 -12 -55 -12 -41 0 -43 1 -43 31 0 17 5 40 11 52 7 11 14 47 16 79 2
31 8 69 13 82 5 15 6 28 0 31 -5 3 -6 15 -3 28 2 12 6 35 6 50 1 15 12 39 25
52 13 13 24 40 26 62 3 21 5 39 6 41 2 1 4 47 5 102 1 55 4 103 5 108 5 16 5
468 1 477 -3 6 -6 37 -7 70 -3 88 -13 128 -36 146 -12 9 -23 25 -26 35 -7 33
-8 95 -1 106 4 6 1 21 -5 33 -7 13 -11 48 -10 79 1 31 -2 59 -7 62 -4 2 -6 11
-2 19 3 9 -1 15 -11 15 -19 0 -46 61 -50 113 -3 29 2 44 18 58 11 11 22 15 24
9 2 -5 10 -10 18 -10z"/>
</g>
</svg>
